<svg width="512" height="512" viewBox="0 0 512 512" fill="none" xmlns="http://www.w3.org/2000/svg">
<path d="M498.065 375.756L426.614 304.305C401.095 278.787 357.714 288.995 347.507 322.168C339.851 345.135 314.333 357.895 291.367 352.79C240.33 340.031 171.431 273.683 158.672 220.095C151.016 197.128 166.327 171.609 189.294 163.955C222.467 153.748 232.675 110.366 207.156 84.8482L135.705 13.3971C115.291 -4.4657 84.6688 -4.4657 66.806 13.3971L18.3213 61.8818C-30.1634 112.918 23.425 248.165 143.361 368.101C263.297 488.037 398.543 544.178 449.58 493.14L498.065 444.656C515.928 424.241 515.928 393.619 498.065 375.756Z" fill="white"/>
</svg>
